<?xml version="1.0" standalone="no"?>
<!DOCTYPE svg PUBLIC "-//W3C//DTD SVG 20010904//EN"
 "http://www.w3.org/TR/2001/REC-SVG-20010904/DTD/svg10.dtd">
<svg version="1.0" xmlns="http://www.w3.org/2000/svg"
 width="152.000000pt" height="152.000000pt" viewBox="0 0 152.000000 152.000000"
 preserveAspectRatio="xMidYMid meet">
<metadata>
Created by potrace 1.11, written by Peter Selinger 2001-2013
</metadata>
<g transform="translate(0.000000,152.000000) scale(0.100000,-0.100000)"
fill="#000000" stroke="none">
<path d="M794 1295 c-16 -13 -17 -16 -4 -25 11 -7 3 -9 -30 -9 -25 1 -37 3
-27 6 30 8 13 28 -26 31 -44 4 -79 -13 -75 -36 2 -9 -5 -18 -14 -20 -12 -2
-15 2 -11 17 7 26 -22 29 -54 6 -16 -11 -20 -23 -18 -52 1 -21 1 -30 -2 -21
-6 24 -42 48 -71 48 -59 0 -88 -54 -34 -66 41 -10 72 -32 72 -53 0 -15 29 -39
34 -29 1 2 8 23 16 48 18 54 56 79 133 87 71 7 151 -18 174 -55 9 -15 18 -29
19 -31 2 -2 16 6 33 18 62 45 150 35 217 -23 30 -26 37 -39 38 -71 2 -37 4
-40 40 -47 52 -11 92 -42 116 -89 13 -25 25 -36 34 -33 11 4 13 0 9 -15 -3
-11 -2 -37 2 -57 6 -34 7 -35 24 -20 27 25 50 19 72 -19 25 -42 39 -37 39 13
0 54 -21 80 -62 75 -29 -3 -30 -2 -10 7 32 14 25 78 -12 102 -18 13 -53 9 -66
-7 -7 -8 -17 -15 -23 -15 -5 0 -3 8 6 18 23 25 21 39 -8 67 -29 30 -85 35 -86
8 0 -13 -3 -12 -10 5 -12 32 -4 42 31 35 23 -4 30 -2 30 11 0 22 -41 46 -113
67 -34 10 -54 18 -44 18 23 1 22 26 -4 50 -22 20 -82 36 -99 26 -13 -8 -1 -35
15 -35 8 0 16 -3 18 -7 3 -5 -18 -7 -47 -5 -33 2 -67 -2 -91 -12 -45 -19 -42
-19 -49 0 -3 8 -2 13 3 10 5 -3 25 1 45 9 19 8 47 15 60 15 35 0 24 22 -23 48
-46 26 -137 30 -167 7z"/>
<path d="M625 1192 c-52 -25 -65 -55 -65 -155 0 -88 -12 -148 -34 -166 -11 -9
-11 -2 0 41 8 29 14 74 14 101 0 47 -1 48 -42 67 -59 27 -100 25 -137 -5 -42
-36 -55 -82 -46 -171 7 -75 5 -79 -30 -64 -17 7 -17 9 -2 9 21 1 22 24 2 41
-20 17 -53 3 -70 -30 -21 -41 -19 -59 15 -145 17 -42 30 -89 30 -106 0 -35
-16 -69 -32 -69 -9 0 -9 3 0 12 19 19 13 89 -11 138 -17 34 -30 46 -54 52 -17
5 -43 23 -58 40 -27 31 -28 32 -42 13 -51 -67 -56 -140 -14 -187 28 -31 30
-32 48 -15 25 22 41 22 20 0 -42 -48 -23 -128 38 -158 41 -19 78 -12 119 22
33 28 48 23 21 -7 -17 -19 -18 -22 -2 -55 25 -52 100 -83 171 -69 30 5 36 10
36 33 0 50 17 55 22 6 3 -25 14 -55 24 -67 23 -25 74 -48 109 -48 25 0 25 1
20 58 l-6 57 18 -54 c25 -76 54 -95 151 -99 87 -3 131 13 166 61 l21 28 -22
62 c-12 34 -20 63 -18 65 2 2 16 -24 32 -57 32 -70 62 -87 145 -79 56 6 94 30
123 78 26 43 82 99 125 125 57 34 75 68 75 139 0 68 -38 161 -66 161 -8 0 -31
-34 -51 -75 -33 -66 -37 -70 -30 -35 16 86 9 148 -24 211 -35 67 -81 104 -129
104 -28 0 -34 -4 -38 -27 -3 -16 -1 -56 5 -91 8 -44 8 -66 1 -73 -16 -16 -27
155 -13 215 9 40 8 53 -5 73 -38 57 -138 88 -194 58 -31 -15 -89 -95 -113
-152 -6 -16 -19 -62 -29 -103 -13 -56 -17 -66 -18 -40 -1 50 16 114 50 191 23
54 27 73 19 93 -21 56 -150 83 -225 48z m-9 -251 c-37 -161 -12 -297 60 -327
52 -22 108 -18 150 11 20 14 55 30 78 35 65 17 66 18 81 54 11 26 12 47 5 92
-13 77 -12 140 1 74 18 -91 22 -166 10 -188 -9 -18 -9 -22 2 -22 7 0 36 -11
63 -25 60 -30 74 -31 108 -4 33 26 46 50 61 114 9 33 13 41 14 24 2 -42 -27
-124 -51 -146 -13 -12 -36 -25 -52 -29 l-29 -7 5 -95 c6 -109 -6 -104 -16 8
-4 41 -13 84 -21 97 -19 28 -86 47 -147 40 -126 -15 -177 -102 -115 -196 32
-49 35 -63 6 -30 -41 47 -52 70 -51 114 l1 45 -57 0 c-90 -1 -122 -36 -123
-142 -1 -74 -17 -53 -18 23 -1 46 -1 46 -41 53 -24 4 -55 1 -79 -8 -40 -13
-40 -13 -26 8 26 36 19 74 -17 97 -19 11 -45 18 -59 16 -24 -3 -26 -1 -15 15
9 14 7 25 -6 48 -16 28 -16 29 2 17 11 -6 24 -24 29 -39 6 -17 17 -28 29 -28
31 0 72 -45 72 -80 0 -30 0 -30 56 -30 50 0 61 4 94 33 l37 34 -28 31 c-38 42
-52 102 -46 187 6 78 38 227 44 208 3 -7 -2 -44 -11 -82z m-215 -43 c-14 -40
-14 -103 0 -131 6 -12 30 -41 52 -64 44 -46 40 -58 -5 -18 -48 42 -78 95 -78
138 0 43 33 149 38 122 2 -9 -1 -30 -7 -47z m1015 -297 c-37 -70 -120 -107
-180 -78 l-31 15 46 -5 c57 -6 110 16 146 63 31 42 38 43 19 5z"/>
<path d="M250 1160 c-10 -10 -29 -41 -40 -68 -16 -36 -32 -55 -60 -71 -50 -28
-70 -56 -70 -98 0 -38 12 -43 29 -10 9 16 10 17 5 2 -3 -11 -9 -41 -11 -66 -5
-41 -2 -48 22 -67 45 -35 61 -29 57 21 -4 58 25 104 71 112 34 7 35 8 41 64 4
32 14 68 23 81 12 17 13 25 5 28 -21 7 -13 17 16 19 152 12 164 21 67 55 -69
24 -130 23 -155 -2z m-20 -117 c0 -38 -10 -50 -45 -58 l-30 -6 26 15 c16 9 29
28 32 46 8 37 17 39 17 3z"/>
</g>
</svg>
